<svg height="16" viewBox="0 0 16 16" width="16" xmlns="http://www.w3.org/2000/svg" xmlns:xlink="http://www.w3.org/1999/xlink"><linearGradient id="a" x1="50%" x2="50%" y1="0%" y2="100%"><stop offset="0" stop-color="#38aeeb"/><stop offset="1" stop-color="#279ad1"/></linearGradient><g fill="none" fill-rule="evenodd"><circle cx="8" cy="8" fill="url(#a)" r="8"/><path d="m3.17026167 7.83635602c2.61724034-1.09369603 4.36247715-1.81472739 5.23571044-2.16309409 2.49325849-.9946577 2.83948199-1.13887002 3.17715779-1.14461237.0742687-.00121788.2554118.02911086.3967139.14780877.141302.11869792.1837348.19560845.1956933.26262858.0119586.06702014.0107388.27548071-.0010986.39477539-.1351106 1.36161053-.6485043 4.50443541-.9459264 6.0294625-.1258504.6452962-.3736539.8616606-.6135563.8828348-.5213634.0460162-.91726313-.3304744-1.42222912-.6479603-.7901721-.4968028-1.05360934-.6801832-1.82060818-1.164971-.88639986-.56025613-.52131816-.7547404-.01616147-1.25797849.13220191-.1316998 2.32229373-2.12934908 2.35481343-2.31274798.02835714-.15992371.03871424-.18060794-.03412983-.25276225-.07284408-.07215431-.15989871-.06315017-.21580914-.05097907-.07925134.01725216-1.28561313.78086635-3.61908537 2.29084257-.35830254.23598467-.68284184.35096433-.97361793.34493897-.3205573-.00664248-.93718095-.17384191-1.39557725-.31675984-.56224172-.17529466-1.00910025-.26797421-.97018891-.56567878.02026743-.15506296.24290064-.31364543.66789964-.47574741z" fill="#fff"/></g></svg>